<?xml version="1.0"?>
<svg xmlns="http://www.w3.org/2000/svg" id="Layer_1" data-name="Layer 1" viewBox="0 0 512 512" width="512" height="512"><title>Bus stop location map</title><path d="M385.429,80.289a182.759,182.759,0,0,0-258.858,0A194.565,194.565,0,0,0,70.392,204.713a183.328,183.328,0,0,0,11.074,75.464c8.763,24.015,23.031,46.656,42.407,67.293L251.626,483.546a6,6,0,0,0,8.748,0L388.127,347.47c19.376-20.637,33.644-43.278,42.407-67.293a183.328,183.328,0,0,0,11.074-75.464A194.565,194.565,0,0,0,385.429,80.289Zm33.832,195.774c-8.2,22.484-21.622,43.745-39.882,63.194L256,470.674,132.621,339.257c-18.26-19.449-31.678-40.71-39.882-63.194a171.414,171.414,0,0,1-10.375-70.549A182.575,182.575,0,0,1,135.071,88.759a170.76,170.76,0,0,1,241.858,0,182.575,182.575,0,0,1,52.707,116.755A171.414,171.414,0,0,1,419.261,276.063Z"/><path d="M256,63.318c-80.5,0-146,67.182-146,149.76s65.5,149.76,146,149.76,146-67.182,146-149.76S336.505,63.318,256,63.318Zm0,287.52c-73.888,0-134-61.8-134-137.76s60.112-137.76,134-137.76,134,61.8,134,137.76S329.888,350.838,256,350.838Z"/><path d="M200.588,249.646a15.429,15.429,0,1,0,15.429,15.428A15.446,15.446,0,0,0,200.588,249.646Zm0,18.857a3.429,3.429,0,1,1,3.429-3.429A3.433,3.433,0,0,1,200.588,268.5Z"/><path d="M311.412,249.646a15.429,15.429,0,1,0,15.43,15.428A15.445,15.445,0,0,0,311.412,249.646Zm0,18.857a3.429,3.429,0,1,1,3.43-3.429A3.433,3.433,0,0,1,311.412,268.5Z"/><path d="M270.413,258.218H241.587a6,6,0,0,0,0,12h28.826a6,6,0,0,0,0-12Z"/><path d="M342.285,140.5v-.08a23.319,23.319,0,0,0-18.5-22.786v-2.846c0-8.822-7.818-16-17.428-16H205.646c-9.61,0-17.428,7.178-17.428,16v2.846a23.319,23.319,0,0,0-18.5,22.786v.08h-3.923c-8.708,0-15.792,6.537-15.792,14.571v8.571a6,6,0,0,0,12,0v-8.571c0-1.214,1.622-2.571,3.792-2.571h3.923V279.509A23.31,23.31,0,0,0,183.73,300.86v8.348c0,11.028,8.076,20,18,20s18-8.587,18-19.143v-7.277h72.54v7.277c0,10.556,8.075,19.143,18,19.143s18-8.972,18-20V300.86a23.31,23.31,0,0,0,14.015-21.351V152.5h3.9c2.185,0,3.819,1.357,3.819,2.571v8.571a6,6,0,0,0,12,0v-8.571c0-8.034-7.1-14.571-15.819-14.571ZM246.8,227.932a31.22,31.22,0,0,0-61.3,0h-3.781V152.5H250v75.428Zm-12.377,0H197.873a19.211,19.211,0,0,1,36.545,0ZM262,152.5h68.285v75.428H262Zm-56.354-41.712H306.354c2.891,0,5.428,1.869,5.428,4v2.352H200.218v-2.352C200.218,112.661,202.755,110.792,205.646,110.792Zm-12.652,18.352H319.006a11.292,11.292,0,0,1,11.279,11.28v.08H181.715v-.08A11.292,11.292,0,0,1,192.994,129.144ZM207.73,310.065c0,3.873-2.748,7.143-6,7.143s-6-3.663-6-8v-6.42h12Zm102.54,7.143c-3.252,0-6-3.27-6-7.143v-7.277h12v6.42C316.27,313.545,313.521,317.208,310.27,317.208Zm8.736-26.42H192.994a11.291,11.291,0,0,1-11.279-11.279V239.932h148.57v39.577A11.291,11.291,0,0,1,319.006,290.788Z"/></svg>
